<?xml version="1.0" encoding="utf-8"?><svg viewBox="0 0 800 800" xmlns="http://www.w3.org/2000/svg" xmlns:xlink="http://www.w3.org/1999/xlink"><style>:root>svg{display:none}:root>svg:target{display:block}</style><svg viewBox="0 0 1920 1920" id="clock" xmlns="http://www.w3.org/2000/svg"><path d="M960 112.941c-467.125 0-847.059 379.934-847.059 847.059 0 467.125 379.934 847.059 847.059 847.059 467.125 0 847.059-379.934 847.059-847.059 0-467.125-379.934-847.059-847.059-847.059M960 1920C430.645 1920 0 1489.355 0 960S430.645 0 960 0s960 430.645 960 960-430.645 960-960 960m417.905-575.955L903.552 988.28V395.34h112.941v536.47l429.177 321.77-67.765 90.465z" fill-rule="evenodd"/></svg><svg viewBox="0 0 16 16" class="bbi bbi-geo-alt" id="geo-mark" xmlns="http://www.w3.org/2000/svg"><path d="M12.166 8.94c-.524 1.062-1.234 2.12-1.96 3.07A31.493 31.493 0 018 14.58a31.481 31.481 0 01-2.206-2.57c-.726-.95-1.436-2.008-1.96-3.07C3.304 7.867 3 6.862 3 6a5 5 0 0110 0c0 .862-.305 1.867-.834 2.94zM8 16s6-5.686 6-10A6 6 0 002 6c0 4.314 6 10 6 10z"/><path d="M8 8a2 2 0 110-4 2 2 0 010 4zm0 1a3 3 0 100-6 3 3 0 000 6z"/></svg><svg viewBox="0 -4 32 32" id="mail" xmlns="http://www.w3.org/2000/svg"><path d="M30 20c0 .203-.039.395-.095.578L21 11l9-7v16zM3.556 21.946l9.024-9.616L16 14.915l3.272-2.601 9.172 9.632c-.143.033-24.745.033-24.888 0zM2 20V4l9 7-8.905 9.578A1.966 1.966 0 012 20zM29 2L16 12 3 2h26zm-1-2H4a4 4 0 00-4 4v16a4 4 0 004 4h24a4 4 0 004-4V4a4 4 0 00-4-4z" fill-rule="evenodd"/></svg><svg viewBox="0 0 24 24" id="phone" xmlns="http://www.w3.org/2000/svg"><path fill-rule="evenodd" clip-rule="evenodd" d="M4.718 3.092c1.226-1.291 3.254-1.05 4.268.384l1.26 1.784c.811 1.147.743 2.74-.225 3.76l-.245.257a.25.25 0 00-.002.006c-.013.036-.045.152-.013.372.067.455.418 1.381 1.846 2.884 1.432 1.508 2.3 1.863 2.703 1.929a.608.608 0 00.294-.007l.408-.43c.874-.92 2.236-1.101 3.335-.469l1.91 1.1c1.633.94 2.013 3.239.708 4.613l-1.42 1.495c-.443.467-1.048.866-1.795.94-1.824.18-6.049-.055-10.478-4.719-4.134-4.351-4.919-8.136-5.018-9.985l.666-.036-.666.036c-.049-.914.358-1.697.894-2.262l1.57-1.652zm3.043 1.25c-.512-.724-1.433-.768-1.956-.217l-1.57 1.652c-.33.35-.505.75-.483 1.149.08 1.51.731 4.952 4.607 9.032 4.064 4.28 7.809 4.4 9.244 4.258.283-.027.575-.185.854-.479l1.42-1.495c.614-.646.453-1.808-.368-2.28l-1.91-1.1c-.513-.295-1.114-.204-1.499.202l-.456.48-.527-.501c.527.5.527.501.526.502l-.001.001-.003.004-.007.006-.014.014a1.007 1.007 0 01-.136.112c-.08.056-.186.119-.321.172-.276.109-.64.167-1.091.094-.878-.142-2.028-.773-3.55-2.376-1.528-1.608-2.113-2.807-2.243-3.7-.067-.454-.014-.817.084-1.092a1.591 1.591 0 01.23-.427l.03-.037.014-.015.006-.007.003-.003.002-.001s0-.002.533.503l-.532-.505.287-.302c.445-.469.51-1.263.088-1.86L7.76 4.342z"/><path d="M13.26 1.88a.751.751 0 01.861-.62c.025.005.107.02.15.03.085.018.204.048.352.09.297.087.712.23 1.21.458.996.457 2.321 1.256 3.697 2.631 1.376 1.376 2.175 2.702 2.632 3.698.228.498.37.912.457 1.21a5.727 5.727 0 01.113.454l.005.031a.765.765 0 01-.617.878.75.75 0 01-.86-.617 2.82 2.82 0 00-.081-.327 7.395 7.395 0 00-.38-1.004c-.39-.85-1.092-2.024-2.33-3.262-1.237-1.238-2.412-1.939-3.262-2.329a7.394 7.394 0 00-1.003-.38 5.749 5.749 0 00-.318-.08.759.759 0 01-.627-.861z"/><path fill-rule="evenodd" clip-rule="evenodd" d="M13.486 5.33a.75.75 0 01.927-.516l-.206.721.207-.72h.002l.004.001.007.002.02.007a2.995 2.995 0 01.233.089c.146.062.345.158.59.303.49.29 1.157.77 1.942 1.556.785.785 1.267 1.453 1.556 1.942.145.245.241.444.304.59a2.968 2.968 0 01.089.233l.006.02.002.008.001.003v.002l-.72.207.721-.206a.75.75 0 01-1.44.422l-.003-.01a3.67 3.67 0 00-.25-.504c-.224-.377-.626-.947-1.326-1.647-.7-.7-1.27-1.102-1.646-1.325a3.674 3.674 0 00-.504-.25l-.01-.004a.75.75 0 01-.506-.925z"/></svg><svg viewBox="0 0 24 24" id="prime_message" xmlns="http://www.w3.org/2000/svg"><path d="M7.5 10.5h.01m4.49 0h.01m4.49 0h.01M7 18v2.335c0 .533 0 .8.11.937a.5.5 0 00.39.188c.176 0 .384-.167.8-.5l2.385-1.908c.487-.39.731-.585 1.002-.724.241-.122.497-.212.762-.267.299-.061.61-.061 1.235-.061H16.2c1.68 0 2.52 0 3.162-.327a3 3 0 001.311-1.311C21 15.72 21 14.88 21 13.2V7.8c0-1.68 0-2.52-.327-3.162a3 3 0 00-1.311-1.311C18.72 3 17.88 3 16.2 3H7.8c-1.68 0-2.52 0-3.162.327a3 3 0 00-1.311 1.311C3 5.28 3 6.12 3 7.8V14c0 .93 0 1.395.102 1.777a3 3 0 002.122 2.12C5.605 18 6.07 18 7 18zm1-7.5a.5.5 0 11-1 0 .5.5 0 011 0zm4.5 0a.5.5 0 11-1 0 .5.5 0 011 0zm4.5 0a.5.5 0 11-1 0 .5.5 0 011 0z"/></svg><svg viewBox="0 0 128 128" id="telegram-ico" xmlns="http://www.w3.org/2000/svg"><path d="M64 10.848c-29.355 0-53.152 23.797-53.152 53.152S34.645 117.152 64 117.152 117.152 93.355 117.152 64 93.355 10.848 64 10.848zM91.533 34.72c2.16-.079 3.794 1.876 2.918 5.388L83.92 89.742c-.735 3.527-2.868 4.371-5.82 2.742L62.055 80.63a8951.683 8951.683 0 00-7.713 7.502c-.894.873-1.606 1.605-3.211 1.605-2.08 0-1.726-.787-2.443-2.767l-5.903-18.094-15.426-4.816c-3.426-1.05-3.451-3.404.77-5.098l61.85-23.856a4.14 4.14 0 011.554-.384zm-9.81 10.556c-.465-.006-1.098.16-1.748.555L45.207 67.768l5.857 17.962 1.16-12.363 29.772-26.861c.817-.725.502-1.218-.273-1.229z"/></svg><svg viewBox="0 0 24 24" id="whatsapp-ico" xmlns="http://www.w3.org/2000/svg"><path d="M2 22l1.412-5.13a9.888 9.888 0 01-1.321-4.95C2.081 6.445 6.526 2 11.99 2a9.848 9.848 0 017.016 2.903 9.85 9.85 0 012.904 7.017c0 5.463-4.446 9.909-9.91 9.909a9.833 9.833 0 01-4.738-1.21L2 22zm5.494-3.165l.303.181a8.245 8.245 0 004.193 1.15c4.536 0 8.236-3.7 8.236-8.237a8.194 8.194 0 00-2.41-5.826 8.206 8.206 0 00-5.826-2.42c-4.547 0-8.245 3.7-8.245 8.237a8.22 8.22 0 001.26 4.385l.191.313-.836 3.044 3.135-.827z"/><path fill-rule="evenodd" clip-rule="evenodd" d="M9.52 7.767c-.181-.414-.383-.424-.554-.424-.151-.01-.313-.01-.484-.01a.92.92 0 00-.665.312c-.232.252-.867.847-.867 2.067 0 1.22.887 2.4 1.008 2.56.12.162 1.713 2.742 4.234 3.74 2.096.827 2.52.666 2.974.615.453-.05 1.462-.595 1.673-1.18.202-.574.202-1.078.141-1.179-.06-.1-.232-.161-.474-.292-.252-.12-1.461-.726-1.693-.807-.232-.08-.394-.12-.555.121-.161.253-.635.807-.786.968-.141.162-.292.182-.534.06-.252-.12-1.049-.382-1.996-1.23-.736-.655-1.23-1.47-1.382-1.712-.14-.253-.02-.384.111-.505.112-.11.253-.292.374-.433.12-.142.16-.253.252-.414.08-.161.04-.312-.02-.433-.061-.11-.535-1.331-.757-1.825z"/></svg></svg>